<?xml version="1.0" encoding="utf-8"?>
<!-- Generator: Adobe Illustrator 21.1.0, SVG Export Plug-In . SVG Version: 6.00 Build 0)  -->
<!DOCTYPE svg PUBLIC "-//W3C//DTD SVG 1.1//EN" "http://www.w3.org/Graphics/SVG/1.1/DTD/svg11.dtd">
<svg version="1.1" id="Layer_1" xmlns="http://www.w3.org/2000/svg" xmlns:xlink="http://www.w3.org/1999/xlink" x="0px" y="0px"
	 viewBox="0 0 76.2 76.2" style="enable-background:new 0 0 76.2 76.2;" xml:space="preserve">
<style type="text/css">
	.st0{fill:#FFFFFF;}
</style>
<path class="st0" d="M11.5,20.3c0.3,0.2,0.7,0.3,1,0.2c6.8-1.9,11.3-2,12.1-2h0.1c0.1,0,4.9-0.1,12.4,2c0.2,0.1,0.5,0.1,0.7,0
	c0.1,0,0.2-0.1,0.4-0.2c0.3-0.2,0.5-0.6,0.5-0.9v-2.9l0,0C30.3,13.9,24.8,14,24.8,14l0,0l0,0c0,0,0,0-0.1,0c-0.8,0-6,0.1-13.6,2.5
	v2.9C11,19.7,11.2,20,11.5,20.3z"/>
<path class="st0" d="M24.8,55.1c-1.8,0-3.3,0.5-4.2,1.2c-0.5,0.4-0.3,1.2,0.3,1.4c1.2,0.3,2.5,0.5,3.9,0.5s2.7-0.2,3.9-0.5
	c0.6-0.2,0.8-1,0.3-1.4C28.1,55.6,26.5,55.1,24.8,55.1z"/>
<path class="st0" d="M47.4,46.1c-2.2,0-4-1.8-4-4V37c0-2.2,1.8-4,4-4h2c0-4.7-0.1-8.6-0.3-10.8c-0.1-0.8-0.6-1.6-1.4-2
	c-2.4-1.1-4.6-2.1-6.8-2.8v2.1c0,1.1-0.5,2.2-1.4,2.8c-0.6,0.5-1.3,0.7-2.1,0.7c-0.3,0-0.7-0.1-1-0.2c-6.4-1.9-10.7-1.9-11.5-1.9
	h-0.3c-0.8,0-5,0.1-11.5,1.9l0,0c-0.3,0.1-0.6,0.1-0.9,0.1c-0.7,0-1.5-0.2-2.1-0.6l0,0l0,0c-0.9-0.7-1.4-1.7-1.4-2.8v-2.1
	c-2.3,0.6-4.6,1.6-7,2.8c-0.8,0.4-1.3,1.2-1.4,2C0,27.1-0.4,39.8,1.5,51.8c0.2,1.3,0.8,2.4,1.7,3.3c3.4,3.2,10.7,8.6,21.5,8.6
	s18.2-5.4,21.5-8.6c0.9-0.9,1.5-2,1.7-3.3c0.3-1.9,0.5-3.8,0.7-5.7H47.4z M10.1,43.3v-7.7c0-1.5,1.3-2.8,2.8-2.8s2.8,1.3,2.8,2.8
	v7.7c0,1.5-1.3,2.8-2.8,2.8S10.1,44.8,10.1,43.3z M37.3,53.7c-1.9,2.1-6.3,5.8-12.6,5.8s-10.6-3.8-12.6-5.8
	c-0.5-0.5-0.2-1.4,0.6-1.5c6.9-0.7,12-0.7,12-0.7s5.1,0,12,0.7C37.5,52.2,37.8,53.1,37.3,53.7z M39.4,43.3c0,1.5-1.3,2.8-2.8,2.8
	c-1.6,0-2.8-1.3-2.8-2.8v-7.7c0-1.5,1.3-2.8,2.8-2.8s2.8,1.2,2.8,2.8V43.3z"/>
<path class="st0" d="M75,35.8H64.9v-10c0-0.6-0.5-1.2-1.2-1.2h-5.1c-0.6,0-1.2,0.5-1.2,1.2v10.1h-10c-0.6,0-1.2,0.5-1.2,1.2v5.1
	c0,0.6,0.5,1.2,1.2,1.2h10.1v10.1c0,0.6,0.5,1.2,1.2,1.2h5.1c0.6,0,1.2-0.5,1.2-1.2V43.3h10c0.6,0,1.2-0.5,1.2-1.2V37
	C76.1,36.4,75.6,35.8,75,35.8z"/>
</svg>
