<?xml version="1.0" encoding="utf-8"?>
<!-- Generator: Adobe Illustrator 20.0.0, SVG Export Plug-In . SVG Version: 6.00 Build 0)  -->
<!DOCTYPE svg PUBLIC "-//W3C//DTD SVG 1.1//EN" "http://www.w3.org/Graphics/SVG/1.1/DTD/svg11.dtd">
<svg version="1.1" id="Layer_1" xmlns="http://www.w3.org/2000/svg" xmlns:xlink="http://www.w3.org/1999/xlink" x="0px" y="0px"
	 viewBox="0 0 76.2 76.2" style="enable-background:new 0 0 76.2 76.2;" xml:space="preserve">
<style type="text/css">
	.st0{fill:#7289DA;}
</style>
<g>
	<path class="st0" d="M63.2,0h-51C7.9,0,4.4,3.5,4.4,7.8v51.5c0,4.3,3.5,7.8,7.8,7.8h43.2l-2-7l4.9,4.5l4.6,4.3l8.2,7.2V7.8
		C71,3.5,67.5,0,63.2,0z M48.5,49.7c0,0-1.4-1.6-2.5-3.1c5-1.4,6.9-4.5,6.9-4.5c-1.6,1-3,1.8-4.4,2.2c-1.9,0.8-3.7,1.3-5.5,1.6
		c-3.7,0.7-7,0.5-9.9,0c-2.2-0.4-4-1-5.6-1.6c-0.9-0.3-1.8-0.8-2.8-1.3c-0.1-0.1-0.2-0.1-0.3-0.2c-0.1,0-0.1-0.1-0.2-0.1
		c-0.7-0.4-1.1-0.6-1.1-0.6s1.8,3,6.7,4.5c-1.1,1.4-2.6,3.2-2.6,3.2c-8.4-0.3-11.6-5.8-11.6-5.8c0-12.3,5.5-22.2,5.5-22.2
		c5.5-4.1,10.7-4,10.7-4l0.4,0.5c-6.9,2-10,5-10,5s0.8-0.5,2.2-1.1c4.1-1.8,7.3-2.3,8.6-2.4c0.2,0,0.4-0.1,0.6-0.1
		c2.3-0.3,4.9-0.4,7.7-0.1c3.6,0.4,7.5,1.5,11.5,3.7c0,0-3-2.9-9.5-4.8l0.5-0.6c0,0,5.2-0.1,10.7,4c0,0,5.5,9.9,5.5,22.2
		C60.1,43.9,56.9,49.5,48.5,49.7z M30.8,31.9c-2.2,0-3.9,1.9-3.9,4.2c0,2.3,1.8,4.2,3.9,4.2c2.2,0,3.9-1.9,3.9-4.2
		C34.7,33.8,32.9,31.9,30.8,31.9 M44.7,31.9c-2.2,0-3.9,1.9-3.9,4.2c0,2.3,1.8,4.2,3.9,4.2c2.2,0,3.9-1.9,3.9-4.2
		C48.6,33.8,46.8,31.9,44.7,31.9"/>
</g>
</svg>
