<?xml version="1.0" encoding="utf-8"?>
<!-- Generator: Adobe Illustrator 21.0.0, SVG Export Plug-In . SVG Version: 6.00 Build 0)  -->
<!DOCTYPE svg PUBLIC "-//W3C//DTD SVG 1.1//EN" "http://www.w3.org/Graphics/SVG/1.1/DTD/svg11.dtd">
<svg version="1.1" id="Layer_1" xmlns="http://www.w3.org/2000/svg" xmlns:xlink="http://www.w3.org/1999/xlink" x="0px" y="0px"
	 viewBox="0 0 76.2 76.2" style="enable-background:new 0 0 76.2 76.2;" xml:space="preserve">
<style type="text/css">
	.st0{fill:#959495;}
	.st1{fill:#7289DA;}
	.st2{fill:#FFFFFF;}
</style>
<path class="st0" d="M48.5,67.1H27.7C12.4,67.1,0,54.7,0,39.4v-0.9c0-15.3,12.4-27.7,27.7-27.7h20.8c15.3,0,27.7,12.4,27.7,27.7v0.9
	C76.2,54.7,63.8,67.1,48.5,67.1z"/>
<g>
	<path class="st2" d="M46.8,42.2l2.7-1.8c-1-2-2.2-4.1-3.2-6c-0.8-1.4-1.5-2.7-2-3.7c-0.7-1.4-1.3-2.5-2.1-3.7L40,23.4
		c-2.7-4.3-3.9-4.5-4.1-4.5c-1,0.8,2.8,8.5,4.1,11.1C42.4,34.8,45.2,39.6,46.8,42.2z"/>
	<path class="st2" d="M50,41.4l-2.6,1.7c1.3,2.1,2.2,3.6,2.6,4.2l2.3-1.5C51.8,45,51,43.5,50,41.4z"/>
	<path class="st2" d="M52.7,47.2l-2.1,1.3c1.9,6.4,3.5,7.8,3.5,7.8c0,0,0.4,0.4,1.1,0.4c0.4,0,0.8-0.1,1.2-0.4c1.4-0.9,1-2.1,1-2.1
		C55.7,50.8,53.3,47.9,52.7,47.2z"/>
	<path class="st2" d="M37.9,28c-0.1-0.6-0.5-1.1-1.1-1.5c-0.5-0.4-1-0.6-1.5-0.6c-0.7,0-1.1,0.5-1.5,1l3.7,2.4
		C37.7,29.2,38,28.7,37.9,28z"/>
	<polygon class="st2" points="37,30.4 33.3,27.9 31.2,31.5 34.9,33.9 	"/>
	<polygon class="st2" points="30.6,32.4 21.2,48 25,50.4 34.3,34.9 	"/>
	<polygon class="st2" points="19.2,55.9 24.2,51.7 20.5,49.4 	"/>
	<polygon class="st2" points="25.6,37.9 18.2,37.9 18.2,45.2 21.2,45.2 	"/>
	<polygon class="st2" points="34.3,37.9 29.9,45.2 47,45.2 42.5,37.9 	"/>
	<polygon class="st2" points="49.8,37.9 53.4,45.2 58,45.2 58,37.9 	"/>
</g>
</svg>
