<?xml version="1.0" encoding="utf-8"?>
<!-- Generator: Adobe Illustrator 21.0.0, SVG Export Plug-In . SVG Version: 6.00 Build 0)  -->
<!DOCTYPE svg PUBLIC "-//W3C//DTD SVG 1.1//EN" "http://www.w3.org/Graphics/SVG/1.1/DTD/svg11.dtd">
<svg version="1.1" id="Layer_1" xmlns:sketch="http://www.bohemiancoding.com/sketch/ns"
	 xmlns="http://www.w3.org/2000/svg" xmlns:xlink="http://www.w3.org/1999/xlink" x="0px" y="0px" viewBox="0 0 76.2 76.2"
	 style="enable-background:new 0 0 76.2 76.2;" xml:space="preserve">
<style type="text/css">
	.st0{fill:#3DB4E7;}
	.st1{fill:#82BC23;}
</style>
<title>Artbox</title>
<desc>Created with Sketch.</desc>
<g id="Page-1" sketch:type="MSPage">
	<g id="Artbox" sketch:type="MSArtboardGroup">
		<g id="Kik" transform="translate(60.000000, 80.000000)" sketch:type="MSLayerGroup">
			<path id="Shape" sketch:type="MSShapeGroup" class="st0" d="M11.6-42.5c2.4,0,4.4,1.9,4.4,4.3c0,2.4-2,4.3-4.4,4.3
				s-4.4-1.9-4.4-4.3C7.2-40.5,9.2-42.5,11.6-42.5L11.6-42.5z"/>
			<path id="Shape_1_" sketch:type="MSShapeGroup" class="st1" d="M-23.5-27.1l-7.9,0l0-19.7l7.9,0L-23.5-27.1L-23.5-27.1z"/>
			<path id="Shape_2_" sketch:type="MSShapeGroup" class="st1" d="M-27.4-31.1c2.2,0,3.9,1.8,3.9,4s-1.7,4-3.9,4s-3.9-1.8-3.9-4
				S-29.6-31.1-27.4-31.1L-27.4-31.1z"/>
			<path id="Shape_3_" sketch:type="MSShapeGroup" class="st1" d="M-27.4-50.8c2.2,0,3.9,1.8,3.9,4c0,2.2-1.7,4-3.9,4
				s-3.9-1.8-3.9-4C-31.3-49-29.6-50.8-27.4-50.8L-27.4-50.8z"/>
			<path id="Shape_4_" sketch:type="MSShapeGroup" class="st1" d="M-55.8-31c2.1,0,3.9,1.8,3.9,3.9c0,2.2-1.7,3.9-3.9,3.9
				c-2.1,0-3.9-1.8-3.9-3.9C-59.7-29.2-58-31-55.8-31L-55.8-31z"/>
			<path id="Shape_5_" sketch:type="MSShapeGroup" class="st1" d="M-55.8-61c2.1,0,3.9,1.8,3.9,4c0,2.2-1.7,4-3.9,4
				c-2.1,0-3.9-1.8-3.9-4C-59.7-59.2-57.9-61-55.8-61L-55.8-61z"/>
			<path id="Shape_6_" sketch:type="MSShapeGroup" class="st1" d="M-59.8-56.9l7.9,0.1l0,14.5l7.3-7.1l5.8,5.4l-5.1,5.1l7.2,9.7
				l-6.4,4.6l-6.8-9.1l-2,1.8l0,5.1l-7.8-0.3L-59.8-56.9L-59.8-56.9z"/>
			<path id="Shape_7_" sketch:type="MSShapeGroup" class="st1" d="M-41.6-50.8c2.2,0,3.9,1.8,3.9,4c0,2.2-1.8,4-3.9,4
				c-2.2,0-3.9-1.8-3.9-4C-45.6-49-43.8-50.8-41.6-50.8L-41.6-50.8z"/>
			<path id="Shape_8_" sketch:type="MSShapeGroup" class="st1" d="M-40-31.1c2.2,0,3.9,1.8,3.9,4c0,2.2-1.8,4-3.9,4s-3.9-1.8-3.9-4
				C-44-29.3-42.2-31.1-40-31.1L-40-31.1z"/>
			<path id="Shape_9_" sketch:type="MSShapeGroup" class="st1" d="M-14-31c2.1,0,3.9,1.8,3.9,3.9c0,2.2-1.7,3.9-3.9,3.9
				c-2.1,0-3.9-1.8-3.9-3.9C-17.9-29.2-16.2-31-14-31L-14-31z"/>
			<path id="Shape_10_" sketch:type="MSShapeGroup" class="st1" d="M-14-61c2.1,0,3.9,1.8,3.9,4c0,2.2-1.7,4-3.9,4
				c-2.1,0-3.9-1.8-3.9-4C-17.9-59.2-16.2-61-14-61L-14-61z"/>
			<path id="Shape_11_" sketch:type="MSShapeGroup" class="st1" d="M-18-56.9l7.9,0.1l0,14.5l7.3-7.1L3.1-44L-2.1-39l7.2,9.7
				l-6.4,4.6l-6.8-9.1l-2,1.8l0,5.1l-7.8-0.3L-18-56.9L-18-56.9z"/>
			<path id="Shape_12_" sketch:type="MSShapeGroup" class="st1" d="M0.2-50.8c2.2,0,3.9,1.8,3.9,4c0,2.2-1.8,4-3.9,4
				c-2.2,0-3.9-1.8-3.9-4C-3.8-49-2-50.8,0.2-50.8L0.2-50.8z"/>
			<path id="Shape_13_" sketch:type="MSShapeGroup" class="st1" d="M1.8-31.1c2.2,0,3.9,1.8,3.9,4c0,2.2-1.8,4-3.9,4
				c-2.2,0-3.9-1.8-3.9-4C-2.2-29.3-0.4-31.1,1.8-31.1L1.8-31.1z"/>
		</g>
	</g>
</g>
</svg>
