<?xml version="1.0" encoding="utf-8"?>
<!-- Generator: Adobe Illustrator 21.1.0, SVG Export Plug-In . SVG Version: 6.00 Build 0)  -->
<!DOCTYPE svg PUBLIC "-//W3C//DTD SVG 1.1//EN" "http://www.w3.org/Graphics/SVG/1.1/DTD/svg11.dtd">
<svg version="1.1" id="Layer_1" xmlns="http://www.w3.org/2000/svg" xmlns:xlink="http://www.w3.org/1999/xlink" x="0px" y="0px"
	 viewBox="0 0 76.2 76.2" style="enable-background:new 0 0 76.2 76.2;" xml:space="preserve">
<style type="text/css">
	.st0{fill:#00B900;}
	.st1{fill:#FFFFFF;}
</style>
<g id="g7930">
	<g id="g7958" transform="matrix(1.6639441,0,0,1.6639441,535.69699,483.72129)">
		<path id="path7960" class="st0" d="M-284.4-290.7h-29.2c-4.6,0-8.3,3.7-8.3,8.3v29.2c0,4.6,3.7,8.3,8.3,8.3h29.2
			c4.6,0,8.3-3.7,8.3-8.3v-29.2C-276.1-286.9-279.9-290.7-284.4-290.7"/>
	</g>
	<g id="g7962" transform="matrix(1.6639441,0,0,1.6639441,546.02809,375.00068)">
		<path id="path7964" class="st1" d="M-288.7-204.5c0-7.5-7.5-13.5-16.7-13.5c-9.2,0-16.7,6.1-16.7,13.5c0,6.7,5.9,12.3,13.9,13.3
			c0.5,0.1,1.3,0.4,1.5,0.8c0.2,0.4,0.1,1.1,0.1,1.5c0,0-0.2,1.2-0.2,1.4c-0.1,0.4-0.3,1.6,1.4,0.9c1.8-0.7,9.6-5.7,13.1-9.7h0
			C-289.8-198.8-288.7-201.5-288.7-204.5"/>
	</g>
	<g id="g7966" transform="matrix(1.6639441,0,0,1.6639441,441.5933,393.76931)">
		<path id="path7968" class="st0" d="M-246-219.4h-1.2c-0.2,0-0.3,0.1-0.3,0.3v7.3c0,0.2,0.1,0.3,0.3,0.3h1.2c0.2,0,0.3-0.1,0.3-0.3
			v-7.3C-245.6-219.2-245.8-219.4-246-219.4"/>
	</g>
	<g id="g7970" transform="matrix(1.6639441,0,0,1.6639441,483.49956,393.76931)">
		<path id="path7972" class="st0" d="M-263.1-219.4h-1.2c-0.2,0-0.3,0.1-0.3,0.3v4.3l-3.3-4.5c0,0,0,0,0,0l0,0c0,0,0,0,0,0
			c0,0,0,0,0,0c0,0,0,0,0,0c0,0,0,0,0,0c0,0,0,0,0,0c0,0,0,0,0,0c0,0,0,0,0,0c0,0,0,0,0,0c0,0,0,0,0,0c0,0,0,0,0,0c0,0,0,0,0,0
			c0,0,0,0,0,0c0,0,0,0,0,0c0,0,0,0,0,0c0,0,0,0,0,0c0,0,0,0,0,0c0,0,0,0,0,0h-1.2c-0.2,0-0.3,0.1-0.3,0.3v7.3
			c0,0.2,0.1,0.3,0.3,0.3h1.2c0.2,0,0.3-0.1,0.3-0.3v-4.3l3.3,4.5c0,0,0.1,0.1,0.1,0.1c0,0,0,0,0,0c0,0,0,0,0,0c0,0,0,0,0,0
			c0,0,0,0,0,0c0,0,0,0,0,0c0,0,0,0,0,0c0,0,0,0,0,0c0,0,0,0,0,0c0,0,0.1,0,0.1,0h1.2c0.2,0,0.3-0.1,0.3-0.3v-7.3
			C-262.8-219.2-262.9-219.4-263.1-219.4"/>
	</g>
	<g id="g7974" transform="matrix(1.6639441,0,0,1.6639441,426.91715,362.04388)">
		<path id="path7976" class="st0" d="M-240-194.2h-3.2v-5.8c0-0.2-0.1-0.3-0.3-0.3h-1.2c-0.2,0-0.3,0.1-0.3,0.3v7.3v0
			c0,0.1,0,0.2,0.1,0.2c0,0,0,0,0,0c0,0,0,0,0,0c0.1,0.1,0.1,0.1,0.2,0.1h0h4.7c0.2,0,0.3-0.1,0.3-0.3v-1.2
			C-239.6-194.1-239.8-194.2-240-194.2"/>
	</g>
	<g id="g7978" transform="matrix(1.6639441,0,0,1.6639441,517.12172,384.29914)">
		<path id="path7980" class="st0" d="M-276.8-211.9c0.2,0,0.3-0.1,0.3-0.3v-1.2c0-0.2-0.1-0.3-0.3-0.3h-4.7h0c-0.1,0-0.2,0-0.2,0.1
			c0,0,0,0,0,0c0,0,0,0,0,0c-0.1,0.1-0.1,0.1-0.1,0.2v0v7.3v0c0,0.1,0,0.2,0.1,0.2c0,0,0,0,0,0c0,0,0,0,0,0c0.1,0.1,0.1,0.1,0.2,0.1
			h0h4.7c0.2,0,0.3-0.1,0.3-0.3v-1.2c0-0.2-0.1-0.3-0.3-0.3h-3.2v-1.2h3.2c0.2,0,0.3-0.1,0.3-0.3v-1.2c0-0.2-0.1-0.3-0.3-0.3h-3.2
			v-1.2H-276.8z"/>
	</g>
</g>
</svg>
