<?xml version="1.0" encoding="utf-8"?>
<!-- Generator: Adobe Illustrator 19.2.0, SVG Export Plug-In . SVG Version: 6.00 Build 0)  -->
<!DOCTYPE svg PUBLIC "-//W3C//DTD SVG 1.1//EN" "http://www.w3.org/Graphics/SVG/1.1/DTD/svg11.dtd">
<svg version="1.1" id="Layer_1" xmlns="http://www.w3.org/2000/svg" xmlns:xlink="http://www.w3.org/1999/xlink" x="0px" y="0px"
	 viewBox="0 0 76.2 76.2" style="enable-background:new 0 0 76.2 76.2;" xml:space="preserve">
<style type="text/css">
	.st0{fill:#01A7EB;}
	.st1{fill:#FFFFFF;}
</style>
<path class="st0" d="M57.9,76.2H18.3C8.2,76.2,0,68,0,57.9V18.3C0,8.2,8.2,0,18.3,0h39.6C68,0,76.2,8.2,76.2,18.3v39.6
	C76.2,68,68,76.2,57.9,76.2z"/>
<g id="Lae9Ql.tif">
	<g>
		<path class="st1" d="M60,23.2c-14.9,0-29.6,0-44.5,0c7.5,6,14.8,12,22.2,17.9C45.2,35.1,52.5,29.2,60,23.2z M15.6,53
			c14.9,0,29.6,0,44.3,0c0-0.1,0-0.1,0-0.1c-5.7-4.6-11.3-9.1-17-13.7c-0.3-0.3-0.5-0.1-0.8,0.1c-1.2,1-2.4,1.9-3.6,2.9
			c-0.5,0.5-0.9,0.5-1.5,0c-1.1-1-2.3-1.9-3.5-2.8c-0.2-0.1-0.4-0.3-0.6-0.4C27.2,43.7,21.5,48.3,15.6,53z M32,38.1
			c-5.9-4.8-11.8-9.5-17.8-14.3c0,9.6,0,19,0,28.6C20.2,47.6,26,42.9,32,38.1z M61.3,23.8c-6,4.8-11.8,9.5-17.7,14.2
			c5.9,4.8,11.8,9.5,17.7,14.2C61.3,42.8,61.3,33.4,61.3,23.8z"/>
	</g>
</g>
</svg>
