<?xml version="1.0" encoding="utf-8"?>
<!-- Generator: Adobe Illustrator 21.1.0, SVG Export Plug-In . SVG Version: 6.00 Build 0)  -->
<!DOCTYPE svg PUBLIC "-//W3C//DTD SVG 1.1//EN" "http://www.w3.org/Graphics/SVG/1.1/DTD/svg11.dtd">
<svg version="1.1" id="Layer_1" xmlns="http://www.w3.org/2000/svg" xmlns:xlink="http://www.w3.org/1999/xlink" x="0px" y="0px"
	 viewBox="0 0 76.2 76.2" style="enable-background:new 0 0 76.2 76.2;" xml:space="preserve">
<style type="text/css">
	.st0{fill:#535AB2;}
</style>
<path class="st0" d="M0.5,8.6v59l43.9,7.7V0.9L0.5,8.6z M32.6,28.7L25.1,29v22.5l-5.3-0.4V29.2L12,29.5v-4.6l20.6-1.2V28.7z"/>
<path class="st0" d="M62.1,35.5h13.6v13.9c0,0,0.3,6.5-8.8,6.5h-4.8V35.5z"/>
<circle class="st0" cx="68.9" cy="24.4" r="6.8"/>
<path class="st0" d="M46.9,31.4h12.8v23.3c0,0,0.3,6-6.8,6.8c-0.3,0-0.5,0-0.8,0.1c-0.9,0-1.8-0.1-2.7-0.2L46.9,61V31.4z"/>
<path class="st0" d="M51.3,13.2c-1.7,0-3.2,0.6-4.4,1.6v10.4c1.2,1,2.7,1.6,4.4,1.6c3.8,0,6.8-3.1,6.8-6.8
	C58.1,16.3,55.1,13.2,51.3,13.2z"/>
</svg>
