<?xml version="1.0" encoding="utf-8"?>
<!-- Generator: Adobe Illustrator 19.2.1, SVG Export Plug-In . SVG Version: 6.00 Build 0)  -->
<!DOCTYPE svg PUBLIC "-//W3C//DTD SVG 1.1//EN" "http://www.w3.org/Graphics/SVG/1.1/DTD/svg11.dtd">
<svg version="1.1" id="Layer_1" xmlns="http://www.w3.org/2000/svg" xmlns:xlink="http://www.w3.org/1999/xlink" x="0px" y="0px"
	 viewBox="0 0 76.2 76.2" style="enable-background:new 0 0 76.2 76.2;" xml:space="preserve">
<style type="text/css">
	.st0{fill:#00AFF0;}
</style>
<g>
	<path class="st0" d="M73.5,44.3c0,0.1,0,0.3-0.1,0.4L73.3,44C73.3,44.1,73.4,44.2,73.5,44.3c0.4-2.1,0.6-4.3,0.6-6.5
		c0-4.9-1-9.6-2.8-14c-1.8-4.3-4.4-8.1-7.7-11.4c-3.3-3.3-7.1-5.9-11.4-7.7c-4.4-1.9-9.1-2.8-14-2.8c-2.3,0-4.6,0.2-6.8,0.6
		c0,0,0,0,0,0c0.1,0.1,0.3,0.1,0.4,0.2l-0.8-0.1c0.1,0,0.3-0.1,0.4-0.1C28.2,0.9,24.8,0,21.3,0c-5.7,0-11,2.2-15.1,6.2
		c-4,4-6.2,9.4-6.2,15.1c0,3.6,0.9,7.2,2.7,10.3c0-0.1,0-0.3,0.1-0.4L2.9,32c-0.1-0.1-0.1-0.2-0.2-0.4c-0.4,2-0.5,4.1-0.5,6.2
		c0,4.9,1,9.6,2.8,14c1.8,4.3,4.4,8.1,7.7,11.4c3.3,3.3,7.1,5.9,11.4,7.7c4.4,1.9,9.1,2.8,14,2.8c2.1,0,4.2-0.2,6.3-0.6
		c-0.1-0.1-0.2-0.1-0.4-0.2l0.8,0.1c-0.1,0-0.3,0-0.4,0.1C47.6,75,51.2,76,54.9,76c5.7,0,11-2.2,15.1-6.2c4-4,6.2-9.4,6.2-15.1
		C76.2,51.1,75.2,47.5,73.5,44.3L73.5,44.3z M38.2,59.8c-12.8,0-18.5-6.3-18.5-11c0-2.4,1.8-4.1,4.2-4.1c5.5,0,4.1,7.9,14.3,7.9
		c5.2,0,8.1-2.8,8.1-5.7c0-1.7-0.9-3.7-4.3-4.5l-11.4-2.8c-9.2-2.3-10.8-7.2-10.8-11.9c0-9.7,9.1-13.3,17.6-13.3
		c7.9,0,17.1,4.3,17.1,10.1c0,2.5-2.1,3.9-4.6,3.9c-4.7,0-3.8-6.5-13.2-6.5c-4.7,0-7.2,2.1-7.2,5.1c0,3,3.7,4,6.9,4.7l8.4,1.9
		c9.2,2.1,11.6,7.4,11.6,12.5C56.4,54,50.4,59.8,38.2,59.8z M44,73c0.1,0.1,0.2,0.1,0.4,0.2c0.1,0,0.3,0,0.4-0.1L44,73z M73.4,44.7
		c0-0.1,0-0.3,0.1-0.4c-0.1-0.1-0.1-0.2-0.2-0.4L73.4,44.7z M2.7,31.2c0,0.1,0,0.3-0.1,0.4c0.1,0.1,0.1,0.2,0.2,0.4L2.7,31.2z
		 M31.7,2.7c-0.1-0.1-0.2-0.1-0.4-0.2c-0.1,0-0.3,0.1-0.4,0.1L31.7,2.7z"/>
</g>
</svg>
