<?xml version="1.0" encoding="utf-8"?>
<!-- Generator: Adobe Illustrator 21.1.0, SVG Export Plug-In . SVG Version: 6.00 Build 0)  -->
<!DOCTYPE svg PUBLIC "-//W3C//DTD SVG 1.1//EN" "http://www.w3.org/Graphics/SVG/1.1/DTD/svg11.dtd">
<svg version="1.1" id="Layer_1" xmlns="http://www.w3.org/2000/svg" xmlns:xlink="http://www.w3.org/1999/xlink" x="0px" y="0px"
	 viewBox="0 0 76.2 76.2" style="enable-background:new 0 0 76.2 76.2;" xml:space="preserve">
<style type="text/css">
	.st0{fill:#D0D2D1;}
	.st1{fill:#119AD7;}
	.st2{fill:#75BD38;}
	.st3{fill:#619E3B;}
	.st4{opacity:0.8;fill:#119AD7;}
	.st5{fill:#107136;}
	.st6{fill:#135C2D;}
	.st7{fill:#A9E0F6;}
	.st8{fill:#8BB7C7;}
	.st9{fill:#1787CA;}
	.st10{fill:#0B6FAA;}
	.st11{opacity:0.6;fill:#75BD38;}
	.st12{fill:#3D883A;}
	.st13{fill:#126435;}
	.st14{fill:#0C512B;}
</style>
<g>
	<path class="st0" d="M25.3,57.5L25,72c0,1.8,1.1,3.3,2.7,3.9c0.7,0.3,1.5,0.2,2.3,0l6.3-1.9c3.3-1,5.5-3.9,5.6-7.2l0.2-8.4
		l-8.4-9.4L25.3,57.5z"/>
	<path class="st0" d="M42.9,16.4l0.3-12.5c0-1-0.3-1.9-0.9-2.6c-1.1-1.3-3-1.7-4.6-1l-5,2.1c-3.8,1.6-6.4,5.2-6.4,9.2l-0.1,5.1
		l7.9,8.9L42.9,16.4z"/>
	<path class="st1" d="M75.4,33.4c-0.5-1.6-2-2.7-3.7-2.8l-19.9-0.6l-7.2,7.4l7.4,8.3l13.6,0.4c3.3,0.1,6.2-1.9,7.4-4.9l2.2-5.8
		C75.5,34.9,75.6,34.1,75.4,33.4z"/>
	<path class="st1" d="M15.9,29l-3.8-0.1c-4-0.1-7.7,2.1-9.4,5.6L0.4,39c-0.7,1.5-0.5,3.3,0.8,4.4c0.7,0.6,1.5,0.9,2.5,0.9l11.9,0.4
		l7.5-7.8L15.9,29z"/>
	<path class="st2" d="M15.6,44.7L4.1,56.6c-1.4,1.5-0.8,3.9,1.2,4.5l7.7,2.4c3.1,1,6.4,0.1,8.7-2.2l3.7-3.8L25.5,45L15.6,44.7z"/>
	<path class="st2" d="M51.8,30.1l5.1-5.3c1.6-1.7,2.1-4.2,1.1-6.3l-3.6-8.3c-0.8-1.8-3.2-2.3-4.6-0.8l-6.9,7.2l-0.3,13.4L51.8,30.1z
		"/>
	<polygon class="st0" points="30.4,45.2 25.5,45 25.3,57.5 33.6,48.9 	"/>
	<polygon class="st3" points="30.4,45.2 25.5,45 25.3,57.5 33.6,48.9 	"/>
	<polygon class="st0" points="37.6,29.6 42.6,29.8 42.9,16.4 34,25.6 	"/>
	<polygon class="st3" points="37.6,29.6 42.6,29.8 42.9,16.4 34,25.6 	"/>
	<polygon class="st4" points="25.7,39.9 23.1,37 15.6,44.7 25.5,45 	"/>
	<polygon class="st5" points="25.7,39.9 23.1,37 15.6,44.7 25.5,45 	"/>
	<polygon class="st4" points="42.5,35.1 44.6,37.5 51.8,30.1 42.6,29.8 	"/>
	<polygon class="st5" points="42.5,35.1 44.6,37.5 51.8,30.1 42.6,29.8 	"/>
	<polygon class="st0" points="42.6,29.8 37.6,29.6 42.5,35.1 	"/>
	<polygon class="st4" points="42.6,29.8 37.6,29.6 42.5,35.1 	"/>
	<polygon class="st6" points="42.6,29.8 37.6,29.6 42.5,35.1 	"/>
	<polygon class="st0" points="25.5,45 30.4,45.2 25.7,39.9 	"/>
	<polygon class="st4" points="25.5,45 30.4,45.2 25.7,39.9 	"/>
	<polygon class="st6" points="25.5,45 30.4,45.2 25.7,39.9 	"/>
	<path class="st7" d="M42,58.3l6.7,7.5c1.2,1.4,3.1,1.8,4.7,1.3c0.7-0.3,1.2-0.8,1.6-1.4l3-5.5c1.5-2.9,1-6.5-1.3-9.1L52,45.8
		l-9.7-0.3L42,58.3z"/>
	<path class="st7" d="M26.2,16.7L12.9,1.8c-0.7-0.8-1.5-1.2-2.4-1.4C8.7,0,7.4,0.3,6.5,2.5l-2,4.8c-1.9,4.5-1.9,6.9,2.1,11.2
		L15.9,29l10,0.3L26.2,16.7z"/>
	<polygon class="st0" points="30.4,29.4 34,25.6 26.2,16.7 25.9,29.3 	"/>
	<polygon class="st8" points="30.4,29.4 34,25.6 26.2,16.7 25.9,29.3 	"/>
	<polygon class="st0" points="37,45.4 33.6,48.9 42,58.3 42.3,45.5 	"/>
	<polygon class="st8" points="37,45.4 33.6,48.9 42,58.3 42.3,45.5 	"/>
	<polygon class="st4" points="42.4,39.7 42.3,45.5 52,45.8 44.6,37.5 	"/>
	<polygon class="st9" points="42.4,39.7 42.3,45.5 52,45.8 44.6,37.5 	"/>
	<polygon class="st4" points="25.8,34.2 25.9,29.3 15.9,29 23.1,37 	"/>
	<polygon class="st9" points="25.8,34.2 25.9,29.3 15.9,29 23.1,37 	"/>
	<polygon class="st0" points="25.9,29.3 25.8,34.2 30.4,29.4 	"/>
	<polygon class="st4" points="25.9,29.3 25.8,34.2 30.4,29.4 	"/>
	<polygon class="st10" points="25.9,29.3 25.8,34.2 30.4,29.4 	"/>
	<polygon class="st0" points="42.3,45.5 42.4,39.7 37,45.4 	"/>
	<polygon class="st4" points="42.3,45.5 42.4,39.7 37,45.4 	"/>
	<polygon class="st10" points="42.3,45.5 42.4,39.7 37,45.4 	"/>
	<polygon class="st0" points="33.6,48.9 37,45.4 30.4,45.2 	"/>
	<polygon class="st11" points="33.6,48.9 37,45.4 30.4,45.2 	"/>
	<polygon class="st12" points="33.6,48.9 37,45.4 30.4,45.2 	"/>
	<polygon class="st0" points="34,25.6 30.4,29.4 37.6,29.6 	"/>
	<polygon class="st11" points="34,25.6 30.4,29.4 37.6,29.6 	"/>
	<polygon class="st12" points="34,25.6 30.4,29.4 37.6,29.6 	"/>
	<polygon class="st4" points="42.4,39.7 44.6,37.5 42.5,35.1 	"/>
	<polygon class="st11" points="42.4,39.7 44.6,37.5 42.5,35.1 	"/>
	<polygon class="st13" points="42.4,39.7 44.6,37.5 42.5,35.1 	"/>
	<polygon class="st4" points="23.1,37 25.7,39.9 25.8,34.2 	"/>
	<polygon class="st11" points="23.1,37 25.7,39.9 25.8,34.2 	"/>
	<polygon class="st13" points="23.1,37 25.7,39.9 25.8,34.2 	"/>
	<polygon class="st0" points="37.6,29.6 30.4,29.4 25.8,34.2 25.7,39.9 30.4,45.2 37,45.4 42.4,39.7 42.5,35.1 	"/>
	<polygon class="st4" points="37.6,29.6 30.4,29.4 25.8,34.2 25.7,39.9 30.4,45.2 37,45.4 42.4,39.7 42.5,35.1 	"/>
	<polygon class="st11" points="37.6,29.6 30.4,29.4 25.8,34.2 25.7,39.9 30.4,45.2 37,45.4 42.4,39.7 42.5,35.1 	"/>
	<polygon class="st14" points="37.6,29.6 30.4,29.4 25.8,34.2 25.7,39.9 30.4,45.2 37,45.4 42.4,39.7 42.5,35.1 	"/>
</g>
</svg>
