<?xml version="1.0" encoding="utf-8"?>
<!-- Generator: Adobe Illustrator 20.0.0, SVG Export Plug-In . SVG Version: 6.00 Build 0)  -->
<!DOCTYPE svg PUBLIC "-//W3C//DTD SVG 1.1//EN" "http://www.w3.org/Graphics/SVG/1.1/DTD/svg11.dtd">
<svg version="1.1" id="Layer_1" xmlns="http://www.w3.org/2000/svg" xmlns:xlink="http://www.w3.org/1999/xlink" x="0px" y="0px"
	 viewBox="0 0 76.2 76.2" style="enable-background:new 0 0 76.2 76.2;" xml:space="preserve">
<style type="text/css">
	.st0{fill:#2DAAE1;}
	.st1{fill:#FFFFFF;}
</style>
<g id="Layer_2">
	<circle class="st0" cx="38.1" cy="38.1" r="38.1"/>
</g>
<g id="Icon">
	<path class="st1" d="M62.5,22.9c-1.8,0.8-3.7,1.3-5.8,1.6c2.1-1.2,3.7-3.2,4.4-5.5c-1.9,1.1-4.1,2-6.4,2.4
		c-1.8-1.9-4.4-3.2-7.3-3.2c-5.5,0-10,4.5-10,10c0,0.8,0.1,1.5,0.3,2.3c-8.3-0.4-15.7-4.4-20.6-10.5c-0.9,1.5-1.4,3.2-1.4,5
		c0,3.5,1.8,6.5,4.5,8.3c-1.6-0.1-3.2-0.5-4.5-1.3c0,0,0,0.1,0,0.1c0,4.9,3.5,8.9,8,9.8c-0.8,0.2-1.7,0.4-2.6,0.4
		c-0.6,0-1.3-0.1-1.9-0.2c1.3,4,5,6.9,9.4,7c-3.4,2.7-7.7,4.3-12.4,4.3c-0.8,0-1.6,0-2.4-0.1c4.4,2.8,9.7,4.5,15.3,4.5
		c18.4,0,28.5-15.3,28.5-28.5c0-0.4,0-0.9,0-1.3C59.4,26.7,61.1,24.9,62.5,22.9z"/>
</g>
</svg>
