<?xml version="1.0" encoding="utf-8"?>
<!-- Generator: Adobe Illustrator 21.0.0, SVG Export Plug-In . SVG Version: 6.00 Build 0)  -->
<!DOCTYPE svg PUBLIC "-//W3C//DTD SVG 1.1//EN" "http://www.w3.org/Graphics/SVG/1.1/DTD/svg11.dtd">
<svg version="1.1" id="Layer_1" xmlns="http://www.w3.org/2000/svg" xmlns:xlink="http://www.w3.org/1999/xlink" x="0px" y="0px"
	 viewBox="0 0 76.2 76.2" style="enable-background:new 0 0 76.2 76.2;" xml:space="preserve">
<style type="text/css">
	.st0{fill:#7D54A2;}
	.st1{fill:#FFFFFF;}
</style>
<path class="st0" d="M10.5,8.9c0,0,7.4-8.7,27.2-8.7S63.9,5.7,67,8.9c3.1,3.2,5.8,10.4,5.8,21.2s-1.3,20.3-6.9,26s-19.9,7.5-30.3,7
	c0,0-1.9-0.1-3.1,0.9c-1.2,1-9.8,10.7-9.8,10.7s-1.5,1.3-2,1.4l-0.1-14.7c0,0-1-0.7-2.8-1.5s-5.4-2.7-7.3-4.8
	c-1.8-2.2-6.2-8-6.2-22.6S8.1,10.9,10.5,8.9z"/>
<g>
	<path class="st1" d="M58.4,49.6C58.4,49.6,58.4,49.6,58.4,49.6c-0.8,1.5-2,2.9-3.4,4.1l0,0c-1.1,1-2.3,1.5-3.4,1.6
		c-0.1,0-0.3,0.1-0.5,0c-0.5,0-1-0.1-1.5-0.2L49.7,55c-1.7-0.5-4.5-1.7-9.3-4.3c-3.1-1.7-5.7-3.4-7.8-5.2c-1.1-0.9-2.3-2-3.5-3.1
		c-0.1-0.1-0.1-0.1-0.1-0.1s-0.1-0.1-0.1-0.1l0,0l0,0c-0.1-0.1-0.1-0.1-0.1-0.1c-0.1-0.1-0.1-0.1-0.1-0.1c-1.2-1.2-2.2-2.4-3.1-3.5
		c-1.7-2.2-3.4-4.8-5.2-7.8c-2.6-4.8-3.8-7.6-4.3-9.3l-0.1-0.1c-0.1-0.5-0.2-1-0.2-1.5c0-0.2,0-0.3,0-0.5c0.1-1.1,0.7-2.2,1.6-3.4
		l0,0c1.3-1.4,2.7-2.5,4.1-3.4l0,0c1.5-0.8,3-0.6,4,0.6c0,0,2.1,2.5,2.9,3.7c0.8,1.1,2,2.9,2.5,4c1,1.8,0.3,3.7-0.6,4.5l-2,1.6
		c-1,0.8-0.9,2.4-0.9,2.4s3,11.3,14.1,14.1c0,0,1.5,0.1,2.3-0.9l1.6-2c0.8-1,2.7-1.6,4.5-0.6c1,0.6,2.9,1.7,4,2.5
		c1.2,0.9,3.7,2.9,3.7,2.9C58.9,46.6,59.2,48,58.4,49.6z M49.2,21.7c-2.2-2.4-5.3-3.8-9.4-4.1c-0.6-0.1-1-0.6-1-1.2
		c0.1-0.6,0.6-1,1.2-1c4.6,0.3,8.3,2,10.9,4.8c2.6,2.9,3.9,6.4,3.8,10.7c0,0.6-0.5,1-1,1l0,0c-0.6,0-1-0.5-1-1.1
		C52.5,27.2,51.5,24.2,49.2,21.7z M49.1,29c0,0.6-0.4,1.1-1,1.1H48c-0.6,0-1-0.4-1-1c-0.2-3.7-1.9-5.5-5.5-5.7c-0.6,0-1-0.6-1-1.1
		c0-0.6,0.6-1,1.1-1C46.2,21.6,48.8,24.2,49.1,29z M59.2,34.2L59.2,34.2c-0.6,0-1.1-0.5-1.1-1c-0.1-6.6-2-11.7-5.8-15.5
		c-3.8-3.7-8.7-5.7-14.3-5.7c-0.6,0-1-0.5-1-1.1c0-0.6,0.5-1,1-1l0,0c6.3,0.1,11.6,2.2,15.9,6.3s6.4,9.9,6.5,17
		C60.3,33.8,59.8,34.2,59.2,34.2z"/>
</g>
</svg>
