<?xml version="1.0" encoding="utf-8"?>
<!-- Generator: Adobe Illustrator 21.0.0, SVG Export Plug-In . SVG Version: 6.00 Build 0)  -->
<!DOCTYPE svg PUBLIC "-//W3C//DTD SVG 1.1//EN" "http://www.w3.org/Graphics/SVG/1.1/DTD/svg11.dtd">
<svg version="1.1" id="Layer_1" xmlns="http://www.w3.org/2000/svg" xmlns:xlink="http://www.w3.org/1999/xlink" x="0px" y="0px"
	 viewBox="0 0 76.2 76.2" style="enable-background:new 0 0 76.2 76.2;" xml:space="preserve">
<style type="text/css">
	.st0{fill:#2DC100;}
	.st1{fill:#FFFFFF;}
</style>
<path class="st0" d="M76.2,64.8c0,6.3-5.1,11.4-11.4,11.4H11.4C5.1,76.2,0,71.1,0,64.8V11.4C0,5.1,5.1,0,11.4,0h53.3
	c6.3,0,11.4,5.1,11.4,11.4V64.8z"/>
<g>
	<path class="st1" d="M51,28.4c-6.1,0.3-11.5,2.2-15.8,6.4c-4.4,4.3-6.4,9.5-5.8,15.9c-2.4-0.3-4.6-0.6-6.8-0.8
		c-0.8-0.1-1.7,0-2.3,0.4c-2.1,1.2-4.2,2.6-6.6,4.1c0.4-2,0.7-3.8,1.2-5.5c0.4-1.2,0.2-1.9-0.9-2.8c-7.4-5.2-10.5-13-8.2-21
		c2.2-7.4,7.4-11.9,14.6-14.3c9.8-3.2,20.8,0.1,26.8,7.9C49.3,21.5,50.7,24.7,51,28.4L51,28.4z M22.7,25.9c0.1-1.5-1.2-2.8-2.7-2.8
		c-1.5,0-2.8,1.1-2.9,2.7c0,1.5,1.1,2.8,2.7,2.8C21.3,28.6,22.6,27.4,22.7,25.9L22.7,25.9z M37.5,23.1c-1.5,0-2.8,1.3-2.8,2.8
		c0,1.5,1.3,2.7,2.8,2.7c1.6,0,2.8-1.2,2.7-2.8C40.3,24.3,39,23.1,37.5,23.1z"/>
	<path class="st1" d="M64.8,66.8c-1.9-0.9-3.7-2.2-5.6-2.4c-1.9-0.2-3.9,0.9-5.9,1.1c-6,0.6-11.4-1.1-15.9-5.2
		C28.9,52.5,30.1,40.4,40,34c8.7-5.7,21.5-3.8,27.7,4.1C73,45,72.3,54.2,65.8,60c-1.9,1.7-2.6,3.1-1.4,5.3
		C64.7,65.7,64.7,66.2,64.8,66.8L64.8,66.8z M42.7,45.3c1.2,0,2.3-1,2.3-2.2c0-1.3-1-2.4-2.3-2.4c-1.3,0-2.4,1.1-2.3,2.4
		C40.4,44.3,41.4,45.3,42.7,45.3L42.7,45.3z M56.9,40.7c-1.2,0-2.2,1-2.3,2.2c-0.1,1.3,1,2.4,2.2,2.4c1.2,0,2.2-0.9,2.3-2.2
		C59.2,41.8,58.2,40.7,56.9,40.7z"/>
</g>
</svg>
