<?xml version="1.0" encoding="utf-8"?>
<!-- Generator: Adobe Illustrator 21.1.0, SVG Export Plug-In . SVG Version: 6.00 Build 0)  -->
<!DOCTYPE svg PUBLIC "-//W3C//DTD SVG 1.1//EN" "http://www.w3.org/Graphics/SVG/1.1/DTD/svg11.dtd">
<svg version="1.1" id="Layer_1" xmlns="http://www.w3.org/2000/svg" xmlns:xlink="http://www.w3.org/1999/xlink" x="0px" y="0px"
	 viewBox="0 0 76.2 76.2" style="enable-background:new 0 0 76.2 76.2;" xml:space="preserve">
<style type="text/css">
	.st0{fill:#00E676;}
	.st1{fill:#FFFFFF;}
</style>
<path class="st0" d="M17.4,70.2l1.4,0.7c6,3.6,12.6,5.2,19.3,5.2l0,0c21,0,38.1-17.1,38.1-38.1c0-10-4-19.8-11.2-26.9S48.3,0,38.1,0
	C17.1,0,0,17.2,0.2,38.3c0,7.1,2.1,14,5.7,20l1,1.4l-3.8,14L17.4,70.2z"/>
<path class="st1" d="M59.3,48.1l-2.6-1.2c0,0-3.8-1.7-6.2-2.9c-0.2,0-0.5-0.2-0.7-0.2c-0.7,0-1.2,0.2-1.7,0.5l0,0c0,0-0.2,0.2-3.6,4
	c-0.2,0.5-0.7,0.7-1.2,0.7h-0.2c-0.2,0-0.7-0.2-1-0.5l-1.2-0.5l0,0c-2.6-1.2-5-2.6-6.9-4.5c-0.5-0.5-1.2-1-1.7-1.4
	c-1.7-1.7-3.3-3.6-4.5-5.7L27.6,36c-0.2-0.2-0.2-0.5-0.5-1c0-0.5,0-1,0.2-1.2c0,0,1-1.2,1.7-1.9c0.5-0.5,0.7-1.2,1.2-1.7
	c0.5-0.7,0.7-1.7,0.5-2.4c-0.2-1.2-3.1-7.6-3.8-9c-0.5-0.7-1-1-1.7-1.2h-0.7c-0.5,0-1.2,0-1.9,0c-0.5,0-1,0.2-1.4,0.2l-0.2,0.2
	c-0.5,0.2-1,0.7-1.4,1c-0.5,0.5-0.7,1-1.2,1.4c-1.7,2.1-2.6,4.8-2.6,7.4l0,0c0,1.9,0.5,3.8,1.2,5.5l0.2,0.7c2.1,4.5,5,8.6,8.8,12.1
	l1,1c0.7,0.7,1.4,1.2,1.9,1.9c5,4.3,10.7,7.4,17.1,9c0.7,0.2,1.7,0.2,2.4,0.5l0,0c0.7,0,1.7,0,2.4,0c1.2,0,2.6-0.5,3.6-1
	c0.7-0.5,1.2-0.5,1.7-1l0.5-0.5c0.5-0.5,1-0.7,1.4-1.2c0.5-0.5,1-1,1.2-1.4c0.5-1,0.7-2.1,1-3.3c0-0.5,0-1.2,0-1.7
	C60,48.6,59.7,48.3,59.3,48.1z"/>
</svg>
